<?xml version="1.0"?>
<svg xmlns="http://www.w3.org/2000/svg" width="474.563" height="296.981" viewBox="0 0 474.563 296.981">
  <defs>
    <style>
      .cls-1 {
        opacity: 0.05;
      }

      .cls-2 {
        isolation: isolate;
      }

      .cls-3 {
        fill: #320d5a;
      }

      .cls-4 {
        fill: #6b31a1;
      }

      .cls-5 {
        fill: #3a0d68;
      }

      .cls-6 {
        fill: #441a70;
      }

      .cls-7 {
        fill: #8121c9;
      }

      .cls-8 {
        fill: #562590;
      }

      .cls-9 {
        fill: #4c1c82;
      }

      .cls-10 {
        fill: #650ac1;
      }

      .cls-11 {
        fill: #28094c;
      }

      .cls-12 {
        fill: #532683;
      }

      .cls-13 {
        fill: #7d36b6;
      }

      .cls-14 {
        fill: #57248b;
      }

      .cls-15 {
        fill: #7232aa;
      }

      .cls-16 {
        fill: #8926d1;
      }

      .cls-17 {
        fill: #892ed3;
      }

      .cls-18 {
        fill: #630abe;
      }

      .cls-19 {
        fill: #10031f;
      }

      .cls-20 {
        fill: #7037aa;
      }

      .cls-21 {
        fill: #54218a;
      }

      .cls-22 {
        fill: #8d29d7;
      }

      .cls-23 {
        fill: #7336ad;
      }

      .cls-24 {
        fill: #622c9b;
      }

      .cls-25 {
        fill: #8037ba;
      }

      .cls-26 {
        fill: #8725d0;
      }

      .cls-27 {
        fill: #591b9a;
      }

      .cls-28 {
        fill: #330d60;
      }

      .cls-29 {
        fill: #65328f;
      }

      .cls-30 {
        fill: #6e34a4;
      }

      .cls-31 {
        fill: #9d48db;
      }

      .cls-32 {
        fill: #b15ae7;
      }

      .cls-33 {
        fill: #9a2ee3;
      }

      .cls-34 {
        fill: #2e0d66;
      }

      .cls-35 {
        fill: #8911e5;
      }

      .cls-36 {
        fill: #8238c3;
      }

      .cls-37 {
        fill: #3e077c;
      }

      .cls-38 {
        fill: #3b1e61;
      }

      .cls-39 {
        fill: #733aab;
      }

      .cls-40 {
        fill: #281147;
      }

      .cls-41 {
        fill: #823bbd;
      }

      .cls-42 {
        fill: #4504e4;
      }

      .cls-43 {
        fill: #5c2896;
      }

      .cls-44 {
        fill: #a331e8;
      }

      .cls-45 {
        fill: #bf69ee;
      }

      .cls-46 {
        fill: #6e1eb1;
      }

      .cls-47 {
        fill: #1d152d;
        opacity: 0;
      }
    </style>
  </defs>
  <g id="New_group" class="cls-1" transform="translate(-49.365 -971.021)">
    <g id="Group_28" class="cls-2" transform="translate(471.86 1237.031)">
      <path id="Path_28" class="cls-3" d="M267.642,690.082a23.367,23.367,0,0,0-2.2-5.445,80.8,80.8,0,0,0-5.46-7.912q-2.969-3.924-3.685-5.011a14.777,14.777,0,0,1-1.643-3.154,8.719,8.719,0,0,1-.5-2.915,6.254,6.254,0,0,1,1.83-4.6,6.129,6.129,0,0,1,4.533-1.845,6.524,6.524,0,0,1,4.666,1.909,10.543,10.543,0,0,1,2.463,4.267,8.875,8.875,0,0,1,2.77-4.664,6.516,6.516,0,0,1,4.2-1.538,6.2,6.2,0,0,1,4.531,1.83,5.864,5.864,0,0,1,1.856,4.32,11.289,11.289,0,0,1-1.073,4.638,33.3,33.3,0,0,1-4.2,6.333,68.689,68.689,0,0,0-5.687,8.019A24.234,24.234,0,0,0,267.642,690.082Z" transform="translate(-254.15 -659.177)"/>
    </g>
    <g id="Group_29" class="cls-2" transform="translate(420.676 1234.302)">
      <path id="Path_29" class="cls-4" d="M238.709,657.7a92.972,92.972,0,0,0,5.9,8.71q3.974,5.329,6.492,8.113a97.517,97.517,0,0,0-6.545,8.168,83.739,83.739,0,0,0-5.816,8.709,32.824,32.824,0,0,0-1.867-3.083q-2.055-3.055-5.3-7.384-.812-1.08-5.139-6.411,2.731-3.107,6.977-8.789A73.078,73.078,0,0,0,238.709,657.7Z" transform="translate(-226.429 -657.699)"/>
    </g>
    <g id="Group_30" class="cls-2" transform="translate(363.992 1234.854)">
      <path id="Path_30" class="cls-5" d="M223.257,690.5H200.862l.212-.907a21.05,21.05,0,0,0,5.8-1.806,9.959,9.959,0,0,0,3.51-4,12.023,12.023,0,0,0,1.355-5.547c0-.266-.017-.672-.052-1.222a11.4,11.4,0,0,1-3.9,4.76,8.568,8.568,0,0,1-4.719,1.516,7.06,7.06,0,0,1-5.214-2.142,7.162,7.162,0,0,1-2.127-5.253,7.339,7.339,0,0,1,1.955-5.172,5.882,5.882,0,0,1,4.4-2.114,10.516,10.516,0,0,1,4.333,1.355,15.793,15.793,0,0,1-1.449-2.766,6.184,6.184,0,0,1-.331-2.048,6.883,6.883,0,0,1,2.086-5.08,7.606,7.606,0,0,1,10.452.013,6.767,6.767,0,0,1,2.114,4.987,8.533,8.533,0,0,1-1.808,4.893q2.232-1.036,2.659-1.169a5.691,5.691,0,0,1,1.623-.214,6.1,6.1,0,0,1,4.6,2.074,7.739,7.739,0,0,1-.186,10.454,6.951,6.951,0,0,1-5.133,2.155,8.277,8.277,0,0,1-3.392-.8,9.883,9.883,0,0,1-3.072-2.155,17.851,17.851,0,0,1-2.286-3.3,16.6,16.6,0,0,0,1.276,6.647,9.878,9.878,0,0,0,3.617,4.044,17.708,17.708,0,0,0,5.851,1.887Z" transform="translate(-195.729 -657.998)"/>
    </g>
    <g id="Group_31" class="cls-2" transform="translate(314.917 1234.503)">
      <path id="Path_31" class="cls-6" d="M182.145,657.808a16.912,16.912,0,0,0,2.136,5.151,29.863,29.863,0,0,0,5.043,5.537,26.67,26.67,0,0,1,4.684,5.07,7.278,7.278,0,0,1,1.08,3.8,5.76,5.76,0,0,1-1.708,4.243,5.6,5.6,0,0,1-4.11,1.708q-4.163,0-6.8-5.07a16.278,16.278,0,0,0,1.027,6.232,7.775,7.775,0,0,0,3.189,3.63,12.956,12.956,0,0,0,5.844,1.56l.188.988H171.578l.186-.988q4.911,0,7.618-2.869t2.6-8.552a9.6,9.6,0,0,1-2.976,3.8,6.7,6.7,0,0,1-3.988,1.267,5.924,5.924,0,0,1-5.872-5.844,7.338,7.338,0,0,1,.853-3.551,16.508,16.508,0,0,1,4.189-4.644,29.471,29.471,0,0,0,5.792-6.11A15.075,15.075,0,0,0,182.145,657.808Z" transform="translate(-169.15 -657.808)"/>
    </g>
    <g id="Group_32" class="cls-2" transform="translate(262.014 1236.102)">
      <path id="Path_32" class="cls-7" d="M154.4,690.526a24.18,24.18,0,0,0-2.267-5.613,82.8,82.8,0,0,0-5.628-8.154q-3.058-4.044-3.8-5.164a15.129,15.129,0,0,1-1.693-3.25,8.968,8.968,0,0,1-.519-3.006,6.457,6.457,0,0,1,1.885-4.74,6.316,6.316,0,0,1,4.67-1.9,6.715,6.715,0,0,1,4.808,1.965,10.859,10.859,0,0,1,2.541,4.4,9.158,9.158,0,0,1,2.855-4.81,6.71,6.71,0,0,1,4.33-1.584,6.406,6.406,0,0,1,4.671,1.885,6.045,6.045,0,0,1,1.913,4.452,11.615,11.615,0,0,1-1.106,4.78,34.32,34.32,0,0,1-4.33,6.529,70.635,70.635,0,0,0-5.86,8.264A24.959,24.959,0,0,0,154.4,690.526Z" transform="translate(-140.498 -658.674)"/>
    </g>
    <g id="Group_33" class="cls-2" transform="translate(210.897 1234.522)">
      <path id="Path_33" class="cls-8" d="M125.01,657.818a92.583,92.583,0,0,0,5.859,8.652q3.949,5.293,6.448,8.06a97.455,97.455,0,0,0-6.5,8.115,82.96,82.96,0,0,0-5.776,8.65,32.544,32.544,0,0,0-1.854-3.063q-2.041-3.035-5.266-7.336-.806-1.072-5.105-6.366,2.714-3.088,6.933-8.73A72.422,72.422,0,0,0,125.01,657.818Z" transform="translate(-112.813 -657.818)"/>
    </g>
    <g id="Group_34" class="cls-2" transform="translate(154.242 1234.632)">
      <path id="Path_34" class="cls-9" d="M109.843,690.6H87.3l.214-.912a20.972,20.972,0,0,0,5.838-1.821,10,10,0,0,0,3.534-4.029,12.083,12.083,0,0,0,1.364-5.583c0-.266-.017-.678-.054-1.232a11.475,11.475,0,0,1-3.922,4.793,8.613,8.613,0,0,1-4.753,1.527,7.12,7.12,0,0,1-5.249-2.156,7.212,7.212,0,0,1-2.142-5.288A7.389,7.389,0,0,1,84.1,670.69a5.926,5.926,0,0,1,4.431-2.129,10.58,10.58,0,0,1,4.365,1.366,15.908,15.908,0,0,1-1.46-2.784,6.233,6.233,0,0,1-.334-2.062,6.927,6.927,0,0,1,2.1-5.113,7.65,7.65,0,0,1,10.523.013A6.8,6.8,0,0,1,105.853,665a8.6,8.6,0,0,1-1.821,4.928q2.249-1.044,2.677-1.178a5.773,5.773,0,0,1,1.634-.214,6.138,6.138,0,0,1,4.631,2.088,7.785,7.785,0,0,1-.186,10.523,7,7,0,0,1-5.168,2.169,8.3,8.3,0,0,1-3.414-.8,9.878,9.878,0,0,1-3.093-2.169,17.914,17.914,0,0,1-2.3-3.32,16.742,16.742,0,0,0,1.285,6.695,9.919,9.919,0,0,0,3.641,4.07,17.9,17.9,0,0,0,5.892,1.9Z" transform="translate(-82.129 -657.878)"/>
    </g>
    <g id="Group_35" class="cls-2" transform="translate(105.237 1233.837)">
      <path id="Path_35" class="cls-10" d="M68.847,657.447a17.2,17.2,0,0,0,2.179,5.255,30.467,30.467,0,0,0,5.146,5.65,27.412,27.412,0,0,1,4.778,5.172,7.434,7.434,0,0,1,1.1,3.881,5.88,5.88,0,0,1-1.743,4.33,5.724,5.724,0,0,1-4.193,1.743q-4.246,0-6.942-5.175a16.548,16.548,0,0,0,1.049,6.357,7.9,7.9,0,0,0,3.253,3.7,13.163,13.163,0,0,0,5.962,1.594l.19,1.008H58.066l.19-1.008q5.007,0,7.773-2.927t2.655-8.728a9.76,9.76,0,0,1-3.037,3.881,6.846,6.846,0,0,1-4.069,1.294,6.044,6.044,0,0,1-5.99-5.964,7.476,7.476,0,0,1,.871-3.623,16.811,16.811,0,0,1,4.273-4.736,30.138,30.138,0,0,0,5.91-6.235A15.4,15.4,0,0,0,68.847,657.447Z" transform="translate(-55.588 -657.447)"/>
    </g>
    <g id="Group_36" class="cls-2" transform="translate(52.166 1237.132)">
      <path id="Path_36" class="cls-11" d="M40.29,690.034a23.4,23.4,0,0,0-2.192-5.427,80.9,80.9,0,0,0-5.443-7.886q-2.958-3.911-3.671-4.993a14.6,14.6,0,0,1-1.638-3.144,8.654,8.654,0,0,1-.5-2.9,6.244,6.244,0,0,1,1.822-4.585,6.117,6.117,0,0,1,4.516-1.835,6.5,6.5,0,0,1,4.649,1.9,10.5,10.5,0,0,1,2.458,4.252,8.841,8.841,0,0,1,2.76-4.647,6.494,6.494,0,0,1,4.188-1.534,6.186,6.186,0,0,1,4.516,1.824,5.849,5.849,0,0,1,1.848,4.306,11.217,11.217,0,0,1-1.069,4.623,33.219,33.219,0,0,1-4.186,6.313,68.57,68.57,0,0,0-5.667,7.991A24.085,24.085,0,0,0,40.29,690.034Z" transform="translate(-26.845 -659.232)"/>
    </g>
    <g id="Group_65" class="cls-2" transform="translate(473.213 1182.527)">
      <path id="Path_65" class="cls-3" d="M266.916,629.658a91.14,91.14,0,0,0,5.777,8.534q3.9,5.223,6.363,7.952a95.341,95.341,0,0,0-6.414,8,81.524,81.524,0,0,0-5.7,8.536,32.8,32.8,0,0,0-1.83-3.022q-2.016-2.994-5.2-7.236-.795-1.061-5.035-6.281,2.675-3.049,6.837-8.615A71.3,71.3,0,0,0,266.916,629.658Z" transform="translate(-254.883 -629.658)"/>
    </g>
    <g id="Group_66" class="cls-2" transform="translate(416.43 1181.866)">
      <path id="Path_66" class="cls-4" d="M252.122,662.35H229.349l.218-.92a21.347,21.347,0,0,0,5.9-1.839,10.093,10.093,0,0,0,3.571-4.071,12.2,12.2,0,0,0,1.379-5.639q0-.4-.055-1.245a11.6,11.6,0,0,1-3.962,4.843,8.716,8.716,0,0,1-4.8,1.54,7.186,7.186,0,0,1-5.3-2.175,7.29,7.29,0,0,1-2.164-5.343,7.453,7.453,0,0,1,1.989-5.259,5.97,5.97,0,0,1,4.476-2.151A10.681,10.681,0,0,1,235,641.471a16.007,16.007,0,0,1-1.473-2.814,6.3,6.3,0,0,1-.338-2.083,7.008,7.008,0,0,1,2.121-5.166,7.733,7.733,0,0,1,10.63.015,6.875,6.875,0,0,1,2.151,5.07,8.688,8.688,0,0,1-1.839,4.978q2.271-1.055,2.7-1.191a5.8,5.8,0,0,1,1.649-.216,6.2,6.2,0,0,1,4.679,2.109,7.863,7.863,0,0,1-.188,10.63,7.07,7.07,0,0,1-5.22,2.192,8.38,8.38,0,0,1-3.449-.812,9.994,9.994,0,0,1-3.124-2.19,18.171,18.171,0,0,1-2.326-3.355,16.924,16.924,0,0,0,1.3,6.762,10.037,10.037,0,0,0,3.68,4.112,18.1,18.1,0,0,0,5.949,1.92Z" transform="translate(-224.129 -629.3)"/>
    </g>
    <g id="Group_67" class="cls-2" transform="translate(367.343 1182.178)">
      <path id="Path_67" class="cls-5" d="M210.5,629.469a16.837,16.837,0,0,0,2.127,5.133,29.65,29.65,0,0,0,5.028,5.517,26.628,26.628,0,0,1,4.666,5.055,7.225,7.225,0,0,1,1.078,3.787,5.742,5.742,0,0,1-1.7,4.23,5.582,5.582,0,0,1-4.1,1.7q-4.149,0-6.784-5.054a16.193,16.193,0,0,0,1.025,6.209,7.708,7.708,0,0,0,3.179,3.617,12.845,12.845,0,0,0,5.824,1.556l.186.984H199.963l.188-.984q4.891,0,7.592-2.858t2.594-8.525a9.538,9.538,0,0,1-2.967,3.791,6.677,6.677,0,0,1-3.975,1.263,5.9,5.9,0,0,1-5.851-5.824,7.281,7.281,0,0,1,.851-3.538,16.409,16.409,0,0,1,4.176-4.629,29.4,29.4,0,0,0,5.77-6.089A15.038,15.038,0,0,0,210.5,629.469Z" transform="translate(-197.544 -629.469)"/>
    </g>
    <g id="Group_68" class="cls-2" transform="translate(314.383 1184.389)">
      <path id="Path_68" class="cls-6" d="M182.443,661.783a23.6,23.6,0,0,0-2.214-5.486,81.607,81.607,0,0,0-5.5-7.967q-2.988-3.947-3.709-5.042a14.769,14.769,0,0,1-1.654-3.176,8.781,8.781,0,0,1-.506-2.936,6.3,6.3,0,0,1,1.841-4.629,6.18,6.18,0,0,1,4.564-1.854,6.558,6.558,0,0,1,4.7,1.92,10.6,10.6,0,0,1,2.482,4.3,8.945,8.945,0,0,1,2.788-4.7,6.556,6.556,0,0,1,4.232-1.547,6.252,6.252,0,0,1,4.562,1.841,5.9,5.9,0,0,1,1.869,4.35,11.319,11.319,0,0,1-1.082,4.669,33.559,33.559,0,0,1-4.23,6.379,69.251,69.251,0,0,0-5.724,8.072A24.361,24.361,0,0,0,182.443,661.783Z" transform="translate(-168.861 -630.666)"/>
    </g>
    <g id="Group_69" class="cls-2" transform="translate(263.406 1181.536)">
      <path id="Path_69" class="cls-7" d="M153.654,629.121a94.452,94.452,0,0,0,5.955,8.8q4.016,5.381,6.557,8.194a99.019,99.019,0,0,0-6.61,8.25,84.4,84.4,0,0,0-5.873,8.8,33.571,33.571,0,0,0-1.885-3.117q-2.077-3.085-5.355-7.456-.817-1.094-5.19-6.475,2.759-3.138,7.048-8.877A73.433,73.433,0,0,0,153.654,629.121Z" transform="translate(-141.252 -629.121)"/>
    </g>
    <g id="Group_70" class="cls-2" transform="translate(206.68 1182.086)">
      <path id="Path_70" class="cls-8" d="M138.336,662.25H115.714l.216-.914a21.155,21.155,0,0,0,5.857-1.826,10.017,10.017,0,0,0,3.545-4.044,12.12,12.12,0,0,0,1.372-5.6q0-.4-.054-1.235a11.531,11.531,0,0,1-3.937,4.81,8.671,8.671,0,0,1-4.769,1.531,7.145,7.145,0,0,1-5.266-2.162,7.239,7.239,0,0,1-2.149-5.307,7.415,7.415,0,0,1,1.976-5.225,5.93,5.93,0,0,1,4.446-2.136,10.629,10.629,0,0,1,4.378,1.37,15.931,15.931,0,0,1-1.464-2.794,6.285,6.285,0,0,1-.334-2.07,6.953,6.953,0,0,1,2.109-5.131,7.677,7.677,0,0,1,10.558.015,6.823,6.823,0,0,1,2.136,5.037,8.629,8.629,0,0,1-1.826,4.943q2.257-1.047,2.686-1.182a5.723,5.723,0,0,1,1.638-.216,6.157,6.157,0,0,1,4.647,2.1,7.809,7.809,0,0,1-.186,10.558,7.023,7.023,0,0,1-5.187,2.175,8.328,8.328,0,0,1-3.425-.8,9.891,9.891,0,0,1-3.1-2.177,18,18,0,0,1-2.312-3.331,16.84,16.84,0,0,0,1.289,6.717,9.988,9.988,0,0,0,3.654,4.084,18.022,18.022,0,0,0,5.912,1.905Z" transform="translate(-110.529 -629.419)"/>
    </g>
    <g id="Group_71" class="cls-2" transform="translate(157.617 1181.957)">
      <path id="Path_71" class="cls-9" d="M97,629.349a16.942,16.942,0,0,0,2.142,5.166,29.9,29.9,0,0,0,5.061,5.556,26.933,26.933,0,0,1,4.7,5.089,7.309,7.309,0,0,1,1.084,3.815,5.778,5.778,0,0,1-1.713,4.258,5.619,5.619,0,0,1-4.123,1.714q-4.177,0-6.828-5.087a16.292,16.292,0,0,0,1.03,6.252,7.769,7.769,0,0,0,3.2,3.641,12.979,12.979,0,0,0,5.864,1.568l.188.99H86.392l.186-.99q4.927,0,7.646-2.88t2.611-8.58a9.584,9.584,0,0,1-2.986,3.815,6.727,6.727,0,0,1-4,1.272,5.939,5.939,0,0,1-5.89-5.864,7.361,7.361,0,0,1,.855-3.562,16.535,16.535,0,0,1,4.2-4.658,29.516,29.516,0,0,0,5.811-6.132A15.155,15.155,0,0,0,97,629.349Z" transform="translate(-83.957 -629.349)"/>
    </g>
    <g id="Group_72" class="cls-2" transform="translate(104.693 1183.77)">
      <path id="Path_72" class="cls-10" d="M69.15,662.076a24.178,24.178,0,0,0-2.258-5.594,83.274,83.274,0,0,0-5.609-8.126q-3.049-4.03-3.785-5.146a15.163,15.163,0,0,1-1.688-3.24,8.957,8.957,0,0,1-.517-2.995,6.439,6.439,0,0,1,1.878-4.725,6.31,6.31,0,0,1,4.657-1.891,6.69,6.69,0,0,1,4.791,1.959A10.826,10.826,0,0,1,69.15,636.7,9.128,9.128,0,0,1,72,631.91a6.69,6.69,0,0,1,4.317-1.579,6.376,6.376,0,0,1,4.655,1.88,6.021,6.021,0,0,1,1.905,4.437,11.57,11.57,0,0,1-1.1,4.764,34.145,34.145,0,0,1-4.315,6.507,70.95,70.95,0,0,0-5.84,8.237A24.95,24.95,0,0,0,69.15,662.076Z" transform="translate(-55.293 -630.331)"/>
    </g>
    <g id="Group_73" class="cls-2" transform="translate(53.514 1182.638)">
      <path id="Path_73" class="cls-11" d="M39.567,629.718a90.509,90.509,0,0,0,5.759,8.5q3.883,5.2,6.339,7.925a95.8,95.8,0,0,0-6.392,7.976,81.672,81.672,0,0,0-5.679,8.508,31.662,31.662,0,0,0-1.822-3.012q-2.008-2.986-5.177-7.212-.792-1.055-5.018-6.261,2.667-3.036,6.815-8.584A71.326,71.326,0,0,0,39.567,629.718Z" transform="translate(-27.575 -629.718)"/>
    </g>
    <g id="Group_102" class="cls-2" transform="translate(469.052 1129.649)">
      <path id="Path_102" class="cls-12" d="M280.436,633.85H257.814l.216-.914a21.073,21.073,0,0,0,5.857-1.828,10.01,10.01,0,0,0,3.545-4.042,12.1,12.1,0,0,0,1.372-5.6c0-.27-.019-.68-.054-1.235a11.524,11.524,0,0,1-3.936,4.808,8.656,8.656,0,0,1-4.769,1.531,7.138,7.138,0,0,1-5.266-2.162,7.239,7.239,0,0,1-2.149-5.307,7.418,7.418,0,0,1,1.976-5.225,5.939,5.939,0,0,1,4.446-2.136,10.629,10.629,0,0,1,4.378,1.37,16.13,16.13,0,0,1-1.464-2.792,6.285,6.285,0,0,1-.334-2.07,6.957,6.957,0,0,1,2.109-5.133,7.682,7.682,0,0,1,10.558.015,6.83,6.83,0,0,1,2.136,5.039,8.625,8.625,0,0,1-1.826,4.941q2.257-1.044,2.686-1.18a5.72,5.72,0,0,1,1.638-.216,6.166,6.166,0,0,1,4.649,2.1,7.812,7.812,0,0,1-.188,10.558,7.022,7.022,0,0,1-5.187,2.177,8.332,8.332,0,0,1-3.425-.807,9.884,9.884,0,0,1-3.1-2.175,18.056,18.056,0,0,1-2.312-3.331,16.8,16.8,0,0,0,1.291,6.717,9.958,9.958,0,0,0,3.654,4.082,17.941,17.941,0,0,0,5.91,1.907Z" transform="translate(-252.629 -601.019)"/>
    </g>
    <g id="Group_103" class="cls-2" transform="translate(419.862 1128.962)">
      <path id="Path_103" class="cls-13" d="M239.247,600.647a17.194,17.194,0,0,0,2.179,5.255,30.342,30.342,0,0,0,5.146,5.65,27.413,27.413,0,0,1,4.778,5.172,7.439,7.439,0,0,1,1.1,3.881,5.877,5.877,0,0,1-1.743,4.33,5.717,5.717,0,0,1-4.193,1.743q-4.246,0-6.942-5.175a16.528,16.528,0,0,0,1.049,6.359,7.912,7.912,0,0,0,3.253,3.7,13.185,13.185,0,0,0,5.962,1.592l.19,1.008H228.466l.19-1.008q5.007,0,7.773-2.927t2.655-8.728a9.76,9.76,0,0,1-3.037,3.881,6.834,6.834,0,0,1-4.069,1.294,6.044,6.044,0,0,1-5.99-5.962,7.464,7.464,0,0,1,.87-3.623,16.831,16.831,0,0,1,4.274-4.738,30.132,30.132,0,0,0,5.91-6.235A15.388,15.388,0,0,0,239.247,600.647Z" transform="translate(-225.988 -600.647)"/>
    </g>
    <g id="Group_104" class="cls-2" transform="translate(366.839 1131.742)">
      <path id="Path_104" class="cls-14" d="M210.947,633.481a23.822,23.822,0,0,0-2.23-5.521,82.044,82.044,0,0,0-5.534-8.021q-3.011-3.974-3.735-5.078a14.882,14.882,0,0,1-1.665-3.2,8.867,8.867,0,0,1-.511-2.956,6.34,6.34,0,0,1,1.856-4.66,6.215,6.215,0,0,1,4.594-1.868,6.612,6.612,0,0,1,4.729,1.935,10.682,10.682,0,0,1,2.5,4.326,8.981,8.981,0,0,1,2.808-4.729,6.594,6.594,0,0,1,4.258-1.56,6.3,6.3,0,0,1,4.594,1.854,5.953,5.953,0,0,1,1.881,4.38,11.42,11.42,0,0,1-1.089,4.7,33.787,33.787,0,0,1-4.258,6.422,69.8,69.8,0,0,0-5.763,8.126A24.567,24.567,0,0,0,210.947,633.481Z" transform="translate(-197.271 -602.153)"/>
    </g>
    <g id="Group_105" class="cls-2" transform="translate(315.816 1129.318)">
      <path id="Path_105" class="cls-15" d="M181.956,600.84a93.478,93.478,0,0,0,5.916,8.737q3.991,5.348,6.512,8.141a98.217,98.217,0,0,0-6.566,8.2,83.873,83.873,0,0,0-5.835,8.737,33.027,33.027,0,0,0-1.872-3.091q-2.063-3.069-5.319-7.409-.814-1.086-5.155-6.433,2.739-3.121,7-8.818A73.1,73.1,0,0,0,181.956,600.84Z" transform="translate(-169.637 -600.84)"/>
    </g>
    <g id="Group_106" class="cls-2" transform="translate(259.119 1128.988)">
      <path id="Path_106" class="cls-16" d="M167.3,634.153H144.218l.22-.933a21.618,21.618,0,0,0,5.975-1.863,10.235,10.235,0,0,0,3.617-4.125,12.368,12.368,0,0,0,1.4-5.715c0-.273-.02-.694-.055-1.261a11.764,11.764,0,0,1-4.016,4.906,8.83,8.83,0,0,1-4.865,1.562,7.278,7.278,0,0,1-5.371-2.206,7.376,7.376,0,0,1-2.192-5.414,7.561,7.561,0,0,1,2.013-5.329,6.064,6.064,0,0,1,4.537-2.181,10.83,10.83,0,0,1,4.468,1.4,16.133,16.133,0,0,1-1.494-2.851,6.382,6.382,0,0,1-.343-2.112,7.1,7.1,0,0,1,2.151-5.234,7.838,7.838,0,0,1,10.772.015,6.967,6.967,0,0,1,2.179,5.139,8.8,8.8,0,0,1-1.863,5.044q2.3-1.072,2.74-1.206a5.822,5.822,0,0,1,1.671-.222,6.282,6.282,0,0,1,4.743,2.14,7.971,7.971,0,0,1-.192,10.77,7.171,7.171,0,0,1-5.29,2.221,8.49,8.49,0,0,1-3.5-.823,10.05,10.05,0,0,1-3.165-2.221,18.286,18.286,0,0,1-2.358-3.4,17.126,17.126,0,0,0,1.316,6.852,10.157,10.157,0,0,0,3.728,4.165,18.348,18.348,0,0,0,6.028,1.946Z" transform="translate(-138.93 -600.661)"/>
    </g>
    <g id="Group_107" class="cls-2" transform="translate(210.064 1129.407)">
      <path id="Path_107" class="cls-8" d="M125.447,600.888a17,17,0,0,0,2.149,5.185,30.015,30.015,0,0,0,5.078,5.576,26.915,26.915,0,0,1,4.714,5.1,7.31,7.31,0,0,1,1.089,3.829,5.8,5.8,0,0,1-1.719,4.271,5.64,5.64,0,0,1-4.138,1.719q-4.193,0-6.852-5.1a16.356,16.356,0,0,0,1.036,6.274,7.794,7.794,0,0,0,3.209,3.652,13.014,13.014,0,0,0,5.884,1.573l.188.993h-21.28l.19-.993q4.941,0,7.67-2.89t2.618-8.61a9.617,9.617,0,0,1-2.995,3.828,6.741,6.741,0,0,1-4.018,1.276,5.961,5.961,0,0,1-5.91-5.884,7.374,7.374,0,0,1,.86-3.571,16.543,16.543,0,0,1,4.219-4.675,29.75,29.75,0,0,0,5.829-6.152A15.221,15.221,0,0,0,125.447,600.888Z" transform="translate(-112.362 -600.888)"/>
    </g>
    <g id="Group_108" class="cls-2" transform="translate(157.148 1131.124)">
      <path id="Path_108" class="cls-17" d="M97.654,633.775a24.306,24.306,0,0,0-2.275-5.631,83.986,83.986,0,0,0-5.646-8.18q-3.071-4.057-3.809-5.181a15.216,15.216,0,0,1-1.7-3.263,9.015,9.015,0,0,1-.521-3.015,6.475,6.475,0,0,1,1.891-4.754,6.348,6.348,0,0,1,4.688-1.906A6.743,6.743,0,0,1,95.1,603.82a10.92,10.92,0,0,1,2.55,4.413,9.158,9.158,0,0,1,2.864-4.823,6.722,6.722,0,0,1,4.345-1.592,6.424,6.424,0,0,1,4.686,1.893,6.061,6.061,0,0,1,1.918,4.468,11.64,11.64,0,0,1-1.11,4.795,34.345,34.345,0,0,1-4.345,6.549,71.419,71.419,0,0,0-5.879,8.29A24.973,24.973,0,0,0,97.654,633.775Z" transform="translate(-83.703 -601.818)"/>
    </g>
    <g id="Group_109" class="cls-2" transform="translate(106.066 1129.318)">
      <path id="Path_109" class="cls-18" d="M68.356,600.84a93.52,93.52,0,0,0,5.918,8.737q3.988,5.348,6.512,8.141a98.111,98.111,0,0,0-6.568,8.2,84.169,84.169,0,0,0-5.835,8.737,33.022,33.022,0,0,0-1.872-3.091q-2.063-3.069-5.318-7.409-.814-1.086-5.157-6.433,2.739-3.121,7-8.818A72.821,72.821,0,0,0,68.356,600.84Z" transform="translate(-56.037 -600.84)"/>
    </g>
    <g id="Group_110" class="cls-2" transform="translate(49.365 1130.64)">
      <path id="Path_110" class="cls-19" d="M52.295,633.4H30.358l.209-.886a20.472,20.472,0,0,0,5.679-1.773,9.733,9.733,0,0,0,3.44-3.922,11.761,11.761,0,0,0,1.328-5.43c0-.262-.017-.659-.052-1.2a11.168,11.168,0,0,1-3.818,4.662,8.382,8.382,0,0,1-4.623,1.486,6.922,6.922,0,0,1-5.107-2.1,7.021,7.021,0,0,1-2.085-5.146,7.2,7.2,0,0,1,1.915-5.068,5.762,5.762,0,0,1,4.313-2.072,10.3,10.3,0,0,1,4.247,1.33,15.264,15.264,0,0,1-1.42-2.709,6.069,6.069,0,0,1-.327-2.007,6.749,6.749,0,0,1,2.046-4.978,7.452,7.452,0,0,1,10.24.013,6.63,6.63,0,0,1,2.072,4.887,8.361,8.361,0,0,1-1.773,4.793q2.188-1.017,2.605-1.147a5.615,5.615,0,0,1,1.59-.209,5.976,5.976,0,0,1,4.507,2.031,7.577,7.577,0,0,1-.183,10.24,6.809,6.809,0,0,1-5.028,2.112,8.076,8.076,0,0,1-3.322-.783,9.612,9.612,0,0,1-3.01-2.109,17.486,17.486,0,0,1-2.242-3.231,16.286,16.286,0,0,0,1.252,6.512,9.641,9.641,0,0,0,3.543,3.961,17.489,17.489,0,0,0,5.731,1.85Z" transform="translate(-25.328 -601.556)"/>
    </g>
    <g id="Group_139" class="cls-2" transform="translate(472.471 1076.45)">
      <path id="Path_139" class="cls-20" d="M267.7,572.207a17.2,17.2,0,0,0,2.171,5.238A30.254,30.254,0,0,0,275,583.077a27.26,27.26,0,0,1,4.764,5.155,7.4,7.4,0,0,1,1.1,3.866,5.857,5.857,0,0,1-1.736,4.315,5.7,5.7,0,0,1-4.18,1.737q-4.232,0-6.92-5.155a16.528,16.528,0,0,0,1.045,6.335,7.892,7.892,0,0,0,3.242,3.693,13.17,13.17,0,0,0,5.943,1.586l.19,1H256.951l.19-1q4.994,0,7.747-2.917t2.646-8.7a9.732,9.732,0,0,1-3.026,3.866,6.819,6.819,0,0,1-4.057,1.289,6.021,6.021,0,0,1-5.971-5.943,7.437,7.437,0,0,1,.87-3.608,16.771,16.771,0,0,1,4.26-4.723,29.96,29.96,0,0,0,5.888-6.215A15.313,15.313,0,0,0,267.7,572.207Z" transform="translate(-254.481 -572.207)"/>
    </g>
    <g id="Group_140" class="cls-2" transform="translate(419.277 1079.12)">
      <path id="Path_140" class="cls-21" d="M239.347,604.981a23.822,23.822,0,0,0-2.23-5.521,82.056,82.056,0,0,0-5.534-8.021q-3.011-3.974-3.735-5.078a14.883,14.883,0,0,1-1.665-3.2,8.868,8.868,0,0,1-.511-2.956,6.34,6.34,0,0,1,1.856-4.66,6.215,6.215,0,0,1,4.594-1.868,6.612,6.612,0,0,1,4.729,1.935,10.707,10.707,0,0,1,2.5,4.326,8.981,8.981,0,0,1,2.808-4.729,6.593,6.593,0,0,1,4.258-1.56,6.3,6.3,0,0,1,4.594,1.854,5.953,5.953,0,0,1,1.881,4.38,11.42,11.42,0,0,1-1.089,4.7,33.787,33.787,0,0,1-4.258,6.422,69.562,69.562,0,0,0-5.763,8.126A24.56,24.56,0,0,0,239.347,604.981Z" transform="translate(-225.671 -573.653)"/>
    </g>
    <g id="Group_141" class="cls-2" transform="translate(368.311 1076.255)">
      <path id="Path_141" class="cls-22" d="M210.551,572.1a94.9,94.9,0,0,0,6,8.855q4.041,5.417,6.6,8.248a98.492,98.492,0,0,0-6.654,8.3,85.209,85.209,0,0,0-5.912,8.854,32.84,32.84,0,0,0-1.9-3.133q-2.088-3.107-5.39-7.508-.823-1.1-5.223-6.518,2.778-3.16,7.094-8.937A73.788,73.788,0,0,0,210.551,572.1Z" transform="translate(-198.068 -572.101)"/>
    </g>
    <g id="Group_142" class="cls-2" transform="translate(311.555 1076.696)">
      <path id="Path_142" class="cls-23" d="M195.416,605.5H172.567l.216-.923a21.4,21.4,0,0,0,5.916-1.845,10.127,10.127,0,0,0,3.582-4.084,12.238,12.238,0,0,0,1.385-5.659q0-.407-.055-1.246a11.636,11.636,0,0,1-3.973,4.856,8.736,8.736,0,0,1-4.817,1.545,7.207,7.207,0,0,1-5.319-2.182,7.312,7.312,0,0,1-2.171-5.36,7.484,7.484,0,0,1,2-5.279,6,6,0,0,1,4.49-2.157,10.733,10.733,0,0,1,4.422,1.383,16.265,16.265,0,0,1-1.479-2.821,6.351,6.351,0,0,1-.338-2.09,7.019,7.019,0,0,1,2.131-5.183,7.76,7.76,0,0,1,10.665.013,6.914,6.914,0,0,1,2.157,5.089,8.712,8.712,0,0,1-1.845,4.993q2.279-1.058,2.712-1.193a5.8,5.8,0,0,1,1.656-.216,6.215,6.215,0,0,1,4.693,2.116,7.891,7.891,0,0,1-.188,10.663,7.1,7.1,0,0,1-5.238,2.2,8.407,8.407,0,0,1-3.46-.814,9.987,9.987,0,0,1-3.135-2.2,18.293,18.293,0,0,1-2.334-3.364,16.945,16.945,0,0,0,1.3,6.782,10.064,10.064,0,0,0,3.691,4.127,18.233,18.233,0,0,0,5.969,1.926Z" transform="translate(-167.329 -572.34)"/>
    </g>
    <g id="Group_143" class="cls-2" transform="translate(262.526 1076.563)">
      <path id="Path_143" class="cls-24" d="M153.947,572.268a17.114,17.114,0,0,0,2.164,5.22,30.14,30.14,0,0,0,5.111,5.611,27.319,27.319,0,0,1,4.747,5.139,7.388,7.388,0,0,1,1.095,3.855,5.836,5.836,0,0,1-1.73,4.3,5.679,5.679,0,0,1-4.165,1.732q-4.221,0-6.9-5.14a16.477,16.477,0,0,0,1.041,6.317,7.867,7.867,0,0,0,3.233,3.678,13.115,13.115,0,0,0,5.923,1.582l.188,1h-21.42l.188-1q4.977,0,7.723-2.908t2.637-8.669a9.681,9.681,0,0,1-3.017,3.854,6.773,6.773,0,0,1-4.042,1.287,6.006,6.006,0,0,1-5.951-5.923,7.414,7.414,0,0,1,.866-3.6,16.715,16.715,0,0,1,4.245-4.706,29.863,29.863,0,0,0,5.87-6.193A15.287,15.287,0,0,0,153.947,572.268Z" transform="translate(-140.775 -572.268)"/>
    </g>
    <g id="Group_144" class="cls-2" transform="translate(209.577 1078.605)">
      <path id="Path_144" class="cls-25" d="M126,605.226a24.176,24.176,0,0,0-2.267-5.613,82.815,82.815,0,0,0-5.628-8.154q-3.058-4.044-3.8-5.164a15.091,15.091,0,0,1-1.693-3.25,8.97,8.97,0,0,1-.519-3.006,6.457,6.457,0,0,1,1.885-4.74,6.319,6.319,0,0,1,4.67-1.9,6.716,6.716,0,0,1,4.808,1.965,10.861,10.861,0,0,1,2.541,4.4,9.164,9.164,0,0,1,2.855-4.81,6.712,6.712,0,0,1,4.33-1.584,6.4,6.4,0,0,1,4.671,1.887,6.039,6.039,0,0,1,1.913,4.452,11.622,11.622,0,0,1-1.106,4.78,34.437,34.437,0,0,1-4.33,6.529,70.728,70.728,0,0,0-5.86,8.263A24.961,24.961,0,0,0,126,605.226Z" transform="translate(-112.098 -573.374)"/>
    </g>
    <g id="Group_145" class="cls-2" transform="translate(158.546 1076.365)">
      <path id="Path_145" class="cls-26" d="M96.9,572.161a94.751,94.751,0,0,0,5.975,8.824q4.03,5.4,6.579,8.224a98.76,98.76,0,0,0-6.632,8.275,85.076,85.076,0,0,0-5.894,8.826,33.392,33.392,0,0,0-1.891-3.124q-2.083-3.1-5.371-7.483-.823-1.094-5.209-6.494,2.767-3.152,7.072-8.909A73.988,73.988,0,0,0,96.9,572.161Z" transform="translate(-84.46 -572.161)"/>
    </g>
    <g id="Group_146" class="cls-2" transform="translate(101.807 1076.916)">
      <path id="Path_146" class="cls-27" d="M81.629,605.4h-22.7l.216-.916a21.193,21.193,0,0,0,5.877-1.835,10.058,10.058,0,0,0,3.558-4.057,12.163,12.163,0,0,0,1.376-5.62c0-.268-.018-.683-.055-1.241a11.557,11.557,0,0,1-3.949,4.826,8.7,8.7,0,0,1-4.784,1.538,7.163,7.163,0,0,1-5.283-2.171A7.257,7.257,0,0,1,53.73,590.6a7.44,7.44,0,0,1,1.979-5.242,5.962,5.962,0,0,1,4.463-2.144,10.643,10.643,0,0,1,4.394,1.376,15.922,15.922,0,0,1-1.47-2.8,6.28,6.28,0,0,1-.338-2.075,6.978,6.978,0,0,1,2.116-5.15,7.706,7.706,0,0,1,10.595.013,6.857,6.857,0,0,1,2.144,5.055,8.667,8.667,0,0,1-1.833,4.959q2.263-1.052,2.7-1.185a5.774,5.774,0,0,1,1.645-.216,6.179,6.179,0,0,1,4.662,2.1,7.841,7.841,0,0,1-.188,10.6,7.049,7.049,0,0,1-5.2,2.182,8.353,8.353,0,0,1-3.436-.809,9.917,9.917,0,0,1-3.113-2.184,18.077,18.077,0,0,1-2.319-3.344,16.841,16.841,0,0,0,1.294,6.741,10.012,10.012,0,0,0,3.665,4.1,18.1,18.1,0,0,0,5.931,1.915Z" transform="translate(-53.73 -572.459)"/>
    </g>
    <g id="Group_147" class="cls-2" transform="translate(52.706 1077.228)">
      <path id="Path_147" class="cls-28" d="M40.045,572.628a16.747,16.747,0,0,0,2.122,5.115,29.569,29.569,0,0,0,5.009,5.5,26.543,26.543,0,0,1,4.651,5.035,7.221,7.221,0,0,1,1.075,3.776,5.731,5.731,0,0,1-1.7,4.217,5.566,5.566,0,0,1-4.082,1.7q-4.135,0-6.758-5.039a16.124,16.124,0,0,0,1.021,6.191,7.687,7.687,0,0,0,3.167,3.6,12.85,12.85,0,0,0,5.805,1.551l.185.98H29.55l.185-.98q4.877,0,7.568-2.849t2.583-8.5a9.468,9.468,0,0,1-2.956,3.778,6.645,6.645,0,0,1-3.962,1.261,5.886,5.886,0,0,1-5.831-5.807,7.254,7.254,0,0,1,.849-3.525,16.319,16.319,0,0,1,4.162-4.612,29.4,29.4,0,0,0,5.752-6.069A14.96,14.96,0,0,0,40.045,572.628Z" transform="translate(-27.137 -572.628)"/>
    </g>
    <g id="Group_176" class="cls-2" transform="translate(471.91 1026.581)">
      <path id="Path_176" class="cls-29" d="M267.9,576.631a23.794,23.794,0,0,0-2.238-5.539,81.967,81.967,0,0,0-5.552-8.048q-3.019-3.988-3.748-5.094a14.942,14.942,0,0,1-1.671-3.207,8.875,8.875,0,0,1-.511-2.965,6.373,6.373,0,0,1,1.859-4.677,6.243,6.243,0,0,1,4.61-1.874,6.627,6.627,0,0,1,4.743,1.942,10.7,10.7,0,0,1,2.507,4.339,9.011,9.011,0,0,1,2.818-4.745,6.616,6.616,0,0,1,4.273-1.564,6.313,6.313,0,0,1,4.609,1.861,5.968,5.968,0,0,1,1.887,4.394,11.465,11.465,0,0,1-1.091,4.718,33.9,33.9,0,0,1-4.273,6.442,69.93,69.93,0,0,0-5.783,8.154A24.609,24.609,0,0,0,267.9,576.631Z" transform="translate(-254.177 -545.198)"/>
    </g>
    <g id="Group_177" class="cls-2" transform="translate(420.691 1024.259)">
      <path id="Path_177" class="cls-30" d="M238.756,543.94a93.449,93.449,0,0,0,5.916,8.739q3.991,5.345,6.514,8.141a97.888,97.888,0,0,0-6.568,8.2,84.172,84.172,0,0,0-5.835,8.737,33.257,33.257,0,0,0-1.872-3.093q-2.063-3.066-5.319-7.41-.814-1.083-5.155-6.431,2.739-3.121,7-8.818A73.25,73.25,0,0,0,238.756,543.94Z" transform="translate(-226.437 -543.94)"/>
    </g>
    <g id="Group_178" class="cls-2" transform="translate(363.994 1023.708)">
      <path id="Path_178" class="cls-31" d="M224.283,577.353H201.055l.22-.936a21.744,21.744,0,0,0,6.016-1.878,10.314,10.314,0,0,0,3.641-4.151,12.443,12.443,0,0,0,1.407-5.751q0-.415-.055-1.27a11.857,11.857,0,0,1-4.042,4.939,8.9,8.9,0,0,1-4.9,1.573,7.331,7.331,0,0,1-5.408-2.223,7.427,7.427,0,0,1-2.206-5.449,7.615,7.615,0,0,1,2.027-5.366,6.1,6.1,0,0,1,4.566-2.194,10.884,10.884,0,0,1,4.5,1.407,16.35,16.35,0,0,1-1.5-2.869,6.4,6.4,0,0,1-.345-2.123,7.138,7.138,0,0,1,2.166-5.268,7.884,7.884,0,0,1,10.842.013,7.016,7.016,0,0,1,2.194,5.172,8.858,8.858,0,0,1-1.876,5.076q2.318-1.072,2.758-1.213a5.976,5.976,0,0,1,1.684-.22,6.329,6.329,0,0,1,4.771,2.151,8.022,8.022,0,0,1-.192,10.842,7.21,7.21,0,0,1-5.325,2.234,8.571,8.571,0,0,1-3.517-.827,10.182,10.182,0,0,1-3.185-2.234,18.433,18.433,0,0,1-2.373-3.421,17.181,17.181,0,0,0,1.324,6.9,10.23,10.23,0,0,0,3.752,4.2,18.493,18.493,0,0,0,6.069,1.959Z" transform="translate(-195.73 -543.642)"/>
    </g>
    <g id="Group_179" class="cls-2" transform="translate(315.055 1023.239)">
      <path id="Path_179" class="cls-32" d="M182.748,543.388a17.581,17.581,0,0,0,2.221,5.358,30.909,30.909,0,0,0,5.247,5.761,27.887,27.887,0,0,1,4.874,5.277,7.568,7.568,0,0,1,1.124,3.957,5.994,5.994,0,0,1-1.778,4.415,5.824,5.824,0,0,1-4.276,1.778q-4.332,0-7.081-5.277a16.9,16.9,0,0,0,1.069,6.485,8.066,8.066,0,0,0,3.318,3.776,13.427,13.427,0,0,0,6.082,1.625l.194,1.027H171.751l.2-1.027q5.107,0,7.927-2.984t2.707-8.9a9.986,9.986,0,0,1-3.095,3.959,6.987,6.987,0,0,1-4.153,1.318,6.164,6.164,0,0,1-6.108-6.082,7.617,7.617,0,0,1,.888-3.693,17.149,17.149,0,0,1,4.359-4.832,30.677,30.677,0,0,0,6.027-6.359A15.726,15.726,0,0,0,182.748,543.388Z" transform="translate(-169.225 -543.388)"/>
    </g>
    <g id="Group_180" class="cls-2" transform="translate(262.044 1025.861)">
      <path id="Path_180" class="cls-33" d="M154.556,576.974a24.472,24.472,0,0,0-2.291-5.67,84.437,84.437,0,0,0-5.681-8.235q-3.091-4.08-3.835-5.212a15.2,15.2,0,0,1-1.712-3.283,9.1,9.1,0,0,1-.522-3.035,6.528,6.528,0,0,1,1.9-4.788,6.4,6.4,0,0,1,4.719-1.916,6.787,6.787,0,0,1,4.854,1.987,10.986,10.986,0,0,1,2.566,4.442,9.235,9.235,0,0,1,2.882-4.856,6.783,6.783,0,0,1,4.372-1.6,6.465,6.465,0,0,1,4.717,1.9,6.109,6.109,0,0,1,1.931,4.5,11.72,11.72,0,0,1-1.117,4.83,34.683,34.683,0,0,1-4.372,6.594,71.5,71.5,0,0,0-5.918,8.344A25.07,25.07,0,0,0,154.556,576.974Z" transform="translate(-140.514 -544.808)"/>
    </g>
    <g id="Group_181" class="cls-2" transform="translate(210.841 1025.03)">
      <path id="Path_181" class="cls-34" d="M124.816,544.358a91.1,91.1,0,0,0,5.777,8.534q3.9,5.224,6.361,7.952a95.476,95.476,0,0,0-6.413,8,81.876,81.876,0,0,0-5.7,8.536,32.589,32.589,0,0,0-1.828-3.023q-2.016-2.994-5.2-7.234-.795-1.061-5.035-6.283,2.675-3.049,6.837-8.615A71.274,71.274,0,0,0,124.816,544.358Z" transform="translate(-112.783 -544.358)"/>
    </g>
    <g id="Group_182" class="cls-2" transform="translate(154.244 1023.817)">
      <path id="Path_182" class="cls-35" d="M110.588,577.3H87.437l.22-.932a21.66,21.66,0,0,0,6-1.872,10.247,10.247,0,0,0,3.628-4.138,12.394,12.394,0,0,0,1.4-5.733c0-.275-.018-.7-.055-1.265a11.813,11.813,0,0,1-4.027,4.922,8.858,8.858,0,0,1-4.882,1.566,7.308,7.308,0,0,1-5.39-2.212,7.412,7.412,0,0,1-2.2-5.43,7.587,7.587,0,0,1,2.022-5.349,6.071,6.071,0,0,1,4.55-2.186,10.869,10.869,0,0,1,4.483,1.4,16.267,16.267,0,0,1-1.5-2.86,6.4,6.4,0,0,1-.343-2.116,7.119,7.119,0,0,1,2.158-5.253,7.857,7.857,0,0,1,10.807.015,6.994,6.994,0,0,1,2.186,5.155,8.829,8.829,0,0,1-1.87,5.059q2.31-1.072,2.749-1.209a5.929,5.929,0,0,1,1.677-.22,6.3,6.3,0,0,1,4.758,2.145,8,8,0,0,1-.192,10.807,7.193,7.193,0,0,1-5.307,2.227A8.489,8.489,0,0,1,104.8,569a10.062,10.062,0,0,1-3.176-2.227,18.431,18.431,0,0,1-2.365-3.408,17.193,17.193,0,0,0,1.32,6.874,10.222,10.222,0,0,0,3.739,4.18,18.529,18.529,0,0,0,6.049,1.954Z" transform="translate(-82.13 -543.701)"/>
    </g>
    <g id="Group_183" class="cls-2" transform="translate(105.248 1023.793)">
      <path id="Path_183" class="cls-36" d="M68.9,543.688a17.346,17.346,0,0,0,2.184,5.271,30.484,30.484,0,0,0,5.164,5.668,27.532,27.532,0,0,1,4.8,5.19,7.459,7.459,0,0,1,1.106,3.892,5.9,5.9,0,0,1-1.749,4.345A5.733,5.733,0,0,1,76.19,569.8q-4.262,0-6.965-5.19a16.6,16.6,0,0,0,1.051,6.379,7.923,7.923,0,0,0,3.266,3.713,13.181,13.181,0,0,0,5.98,1.6l.192,1.01H58.079l.192-1.01q5.024,0,7.8-2.936t2.662-8.756a9.772,9.772,0,0,1-3.047,3.892,6.846,6.846,0,0,1-4.082,1.3,6.066,6.066,0,0,1-6.01-5.982,7.509,7.509,0,0,1,.873-3.634,16.886,16.886,0,0,1,4.289-4.753,30.218,30.218,0,0,0,5.929-6.256A15.47,15.47,0,0,0,68.9,543.688Z" transform="translate(-55.594 -543.688)"/>
    </g>
    <g id="Group_184" class="cls-2" transform="translate(52.196 1026.891)">
      <path id="Path_184" class="cls-37" d="M40.443,576.483A23.6,23.6,0,0,0,38.229,571a81.615,81.615,0,0,0-5.5-7.965q-2.991-3.95-3.711-5.044a14.774,14.774,0,0,1-1.654-3.176,8.773,8.773,0,0,1-.506-2.934,6.308,6.308,0,0,1,1.841-4.631,6.18,6.18,0,0,1,4.564-1.854,6.566,6.566,0,0,1,4.7,1.92,10.609,10.609,0,0,1,2.482,4.3,8.953,8.953,0,0,1,2.788-4.7,6.57,6.57,0,0,1,4.232-1.547,6.253,6.253,0,0,1,4.562,1.841,5.907,5.907,0,0,1,1.869,4.35,11.345,11.345,0,0,1-1.08,4.669,33.681,33.681,0,0,1-4.23,6.379,69.087,69.087,0,0,0-5.726,8.072A24.392,24.392,0,0,0,40.443,576.483Z" transform="translate(-26.861 -545.366)"/>
    </g>
    <g id="Group_213" class="cls-2" transform="translate(473.226 972.482)">
      <path id="Path_213" class="cls-38" d="M266.965,515.9a91.379,91.379,0,0,0,5.8,8.564q3.911,5.24,6.383,7.978a95.947,95.947,0,0,0-6.437,8.032,82.33,82.33,0,0,0-5.718,8.566A32.519,32.519,0,0,0,265.158,546q-2.022-3-5.214-7.258-.8-1.063-5.054-6.305,2.687-3.058,6.863-8.643A71.925,71.925,0,0,0,266.965,515.9Z" transform="translate(-254.89 -515.898)"/>
    </g>
    <g id="Group_214" class="cls-2" transform="translate(416.43 971.821)">
      <path id="Path_214" class="cls-39" d="M252.216,548.7H229.367l.216-.923a21.44,21.44,0,0,0,5.918-1.844,10.138,10.138,0,0,0,3.58-4.084,12.231,12.231,0,0,0,1.385-5.657c0-.273-.018-.687-.054-1.248a11.657,11.657,0,0,1-3.975,4.858,8.751,8.751,0,0,1-4.817,1.545,7.209,7.209,0,0,1-5.319-2.184,7.312,7.312,0,0,1-2.171-5.358,7.5,7.5,0,0,1,2-5.281,6,6,0,0,1,4.49-2.157,10.73,10.73,0,0,1,4.424,1.383,15.944,15.944,0,0,1-1.479-2.821,6.29,6.29,0,0,1-.34-2.09,7.016,7.016,0,0,1,2.131-5.181,7.757,7.757,0,0,1,10.665.011,6.907,6.907,0,0,1,2.157,5.089,8.708,8.708,0,0,1-1.845,4.993q2.279-1.055,2.714-1.193a5.84,5.84,0,0,1,1.654-.216,6.218,6.218,0,0,1,4.694,2.116,7.885,7.885,0,0,1-.188,10.663,7.094,7.094,0,0,1-5.238,2.2,8.393,8.393,0,0,1-3.458-.814,9.957,9.957,0,0,1-3.135-2.2,18.127,18.127,0,0,1-2.334-3.364,16.965,16.965,0,0,0,1.3,6.784,10.071,10.071,0,0,0,3.691,4.125A18.183,18.183,0,0,0,252,547.778Z" transform="translate(-224.129 -515.54)"/>
    </g>
    <g id="Group_215" class="cls-2" transform="translate(367.308 972.574)">
      <path id="Path_215" class="cls-40" d="M210.346,515.948a16.635,16.635,0,0,0,2.1,5.081,29.4,29.4,0,0,0,4.976,5.463,26.451,26.451,0,0,1,4.62,5,7.176,7.176,0,0,1,1.067,3.75,5.679,5.679,0,0,1-1.686,4.188,5.527,5.527,0,0,1-4.055,1.684q-4.1,0-6.712-5a15.977,15.977,0,0,0,1.014,6.147,7.639,7.639,0,0,0,3.146,3.582,12.767,12.767,0,0,0,5.764,1.54l.185.973H199.922l.183-.973a9.839,9.839,0,0,0,7.517-2.831q2.67-2.83,2.566-8.438a9.436,9.436,0,0,1-2.936,3.752,6.61,6.61,0,0,1-3.935,1.25,5.845,5.845,0,0,1-5.792-5.764,7.217,7.217,0,0,1,.842-3.5,16.25,16.25,0,0,1,4.134-4.583,29.1,29.1,0,0,0,5.713-6.027A14.923,14.923,0,0,0,210.346,515.948Z" transform="translate(-197.525 -515.948)"/>
    </g>
    <g id="Group_216" class="cls-2" transform="translate(314.45 973.73)">
      <path id="Path_216" class="cls-41" d="M182.8,548.426a24.176,24.176,0,0,0-2.267-5.613,83.158,83.158,0,0,0-5.628-8.154q-3.058-4.044-3.8-5.164a15.081,15.081,0,0,1-1.693-3.248,8.986,8.986,0,0,1-.521-3.006,6.468,6.468,0,0,1,1.885-4.742,6.33,6.33,0,0,1,4.671-1.9,6.719,6.719,0,0,1,4.808,1.964,10.862,10.862,0,0,1,2.541,4.4,9.152,9.152,0,0,1,2.855-4.808,6.7,6.7,0,0,1,4.33-1.586,6.4,6.4,0,0,1,4.671,1.887,6.04,6.04,0,0,1,1.913,4.452,11.621,11.621,0,0,1-1.106,4.78,34.531,34.531,0,0,1-4.33,6.529,70.644,70.644,0,0,0-5.86,8.263A24.992,24.992,0,0,0,182.8,548.426Z" transform="translate(-168.897 -516.574)"/>
    </g>
    <g id="Group_217" class="cls-2" transform="translate(263.406 971.601)">
      <path id="Path_217" class="cls-42" d="M153.654,515.421a94.476,94.476,0,0,0,5.955,8.8q4.016,5.381,6.557,8.194a98.679,98.679,0,0,0-6.61,8.25,84.594,84.594,0,0,0-5.873,8.8,33.575,33.575,0,0,0-1.885-3.115q-2.077-3.085-5.355-7.456-.817-1.094-5.19-6.475,2.759-3.141,7.048-8.877A73.622,73.622,0,0,0,153.654,515.421Z" transform="translate(-141.252 -515.421)"/>
    </g>
    <g id="Group_218" class="cls-2" transform="translate(206.68 972.041)">
      <path id="Path_218" class="cls-43" d="M138.43,548.6h-22.7l.216-.916a21.254,21.254,0,0,0,5.875-1.833,10.075,10.075,0,0,0,3.56-4.056,12.173,12.173,0,0,0,1.374-5.62c0-.27-.017-.685-.054-1.241a11.591,11.591,0,0,1-3.949,4.825,8.682,8.682,0,0,1-4.784,1.538,7.17,7.17,0,0,1-5.284-2.171,7.256,7.256,0,0,1-2.157-5.325,7.433,7.433,0,0,1,1.981-5.24,5.957,5.957,0,0,1,4.463-2.145,10.616,10.616,0,0,1,4.393,1.377,16.05,16.05,0,0,1-1.47-2.8,6.328,6.328,0,0,1-.336-2.075,6.98,6.98,0,0,1,2.116-5.149,7.7,7.7,0,0,1,10.595.015,6.848,6.848,0,0,1,2.142,5.054,8.673,8.673,0,0,1-1.832,4.961q2.263-1.053,2.7-1.187a5.76,5.76,0,0,1,1.643-.216,6.189,6.189,0,0,1,4.664,2.1,7.841,7.841,0,0,1-.188,10.6,7.049,7.049,0,0,1-5.2,2.182,8.359,8.359,0,0,1-3.438-.809,9.957,9.957,0,0,1-3.113-2.184,18.163,18.163,0,0,1-2.317-3.342,16.825,16.825,0,0,0,1.294,6.739,9.987,9.987,0,0,0,3.665,4.1,18.091,18.091,0,0,0,5.931,1.915Z" transform="translate(-110.529 -515.659)"/>
    </g>
    <g id="Group_219" class="cls-2" transform="translate(157.721 971.021)">
      <path id="Path_219" class="cls-44" d="M97.447,515.107a17.455,17.455,0,0,0,2.206,5.325,30.857,30.857,0,0,0,5.214,5.724,27.8,27.8,0,0,1,4.843,5.242,7.538,7.538,0,0,1,1.117,3.933,5.955,5.955,0,0,1-1.765,4.385,5.8,5.8,0,0,1-4.25,1.765q-4.3,0-7.035-5.24a16.8,16.8,0,0,0,1.062,6.44,8.024,8.024,0,0,0,3.3,3.752,13.363,13.363,0,0,0,6.041,1.614l.194,1.021H86.522l.194-1.021q5.077,0,7.877-2.965t2.688-8.841a9.9,9.9,0,0,1-3.074,3.931,6.942,6.942,0,0,1-4.125,1.309,6.122,6.122,0,0,1-6.069-6.041,7.565,7.565,0,0,1,.883-3.669,17.037,17.037,0,0,1,4.33-4.8,30.483,30.483,0,0,0,5.988-6.318A15.593,15.593,0,0,0,97.447,515.107Z" transform="translate(-84.013 -515.107)"/>
    </g>
    <g id="Group_220" class="cls-2" transform="translate(104.761 973.112)">
      <path id="Path_220" class="cls-45" d="M69.508,548.722A24.606,24.606,0,0,0,67.2,543a85.125,85.125,0,0,0-5.739-8.314q-3.119-4.124-3.872-5.266a15.335,15.335,0,0,1-1.728-3.316,9.169,9.169,0,0,1-.528-3.063,6.585,6.585,0,0,1,1.922-4.834,6.452,6.452,0,0,1,4.764-1.935,6.841,6.841,0,0,1,4.9,2.005,11.058,11.058,0,0,1,2.59,4.485,9.335,9.335,0,0,1,2.912-4.9,6.843,6.843,0,0,1,4.415-1.616,6.54,6.54,0,0,1,4.766,1.922,6.173,6.173,0,0,1,1.95,4.542,11.821,11.821,0,0,1-1.13,4.874,35,35,0,0,1-4.415,6.658,72.243,72.243,0,0,0-5.975,8.429A25.4,25.4,0,0,0,69.508,548.722Z" transform="translate(-55.33 -516.239)"/>
    </g>
    <g id="Group_221" class="cls-2" transform="translate(53.629 971.821)">
      <path id="Path_221" class="cls-46" d="M39.956,515.54a93.458,93.458,0,0,0,5.916,8.739q3.991,5.345,6.514,8.141a97.3,97.3,0,0,0-6.568,8.194,83.68,83.68,0,0,0-5.835,8.739,33.021,33.021,0,0,0-1.872-3.093q-2.063-3.069-5.319-7.409-.814-1.086-5.155-6.431,2.739-3.121,7-8.82A73.07,73.07,0,0,0,39.956,515.54Z" transform="translate(-27.637 -515.54)"/>
    </g>
    <rect id="Rectangle_59" class="cls-47" width="25" height="10" transform="translate(498.928 1029.449)"/>
  </g>
</svg>
