<svg xmlns="http://www.w3.org/2000/svg" width="20.922" height="20.923" viewBox="0 0 20.922 20.923">
  <defs>
    <style>
      .cls-1 {
        fill: #8e70d4;
      }
    </style>
  </defs>
  <g id="Icon_People" data-name="Icon People" transform="translate(-1149.005 -424.139)">
    <g id="Group_946" data-name="Group 946" transform="translate(1152.223 429.604)">
      <path id="Path_514" data-name="Path 514" class="cls-1" d="M1186.244,479.035H1172.7a.473.473,0,0,1-.473-.473v-1.675c0-.008,0-.016,0-.024a2.234,2.234,0,0,1,1.234-1.84l.011,0,3.715-1.6v-1.482a5.045,5.045,0,0,1-1.515-3.713c0-2.56,1.7-4.642,3.8-4.642s3.8,2.082,3.8,4.642a5.045,5.045,0,0,1-1.515,3.713v1.482l3.716,1.6.011,0a2.234,2.234,0,0,1,1.234,1.84c0,.008,0,.016,0,.024v1.675A.473.473,0,0,1,1186.244,479.035Zm-13.066-.946h12.593V476.9a1.278,1.278,0,0,0-.684-1.018l-3.991-1.723a.473.473,0,0,1-.286-.434v-2.009a.473.473,0,0,1,.174-.367,4.029,4.029,0,0,0,1.341-3.13c0-2.038-1.279-3.7-2.851-3.7s-2.851,1.658-2.851,3.7a4.029,4.029,0,0,0,1.341,3.13.473.473,0,0,1,.174.367v2.009a.473.473,0,0,1-.286.434l-3.993,1.723a1.278,1.278,0,0,0-.682,1.017Z" transform="translate(-1172.231 -463.577)"/>
    </g>
    <g id="Group_949" data-name="Group 949" transform="translate(1149.005 424.139)">
      <g id="Group_947" data-name="Group 947" transform="translate(0 0)">
        <path id="Path_515" data-name="Path 515" class="cls-1" d="M1154.057,435.211h-4.579a.473.473,0,0,1-.473-.473v-1.169c0-.008,0-.016,0-.024a1.686,1.686,0,0,1,.944-1.407l.011,0,2.506-1.082v-.878a3.681,3.681,0,0,1-1.057-2.652,2.844,2.844,0,1,1,5.585,0,3.8,3.8,0,0,1-.737,2.291.473.473,0,0,1-.754-.573,2.846,2.846,0,0,0,.544-1.719,1.918,1.918,0,1,0-3.693,0,2.668,2.668,0,0,0,.883,2.073.473.473,0,0,1,.174.367v1.4a.473.473,0,0,1-.286.434l-2.783,1.2a.751.751,0,0,0-.393.585v.682h4.106a.473.473,0,0,1,0,.946Z" transform="translate(-1149.005 -424.139)"/>
      </g>
      <g id="Group_948" data-name="Group 948" transform="translate(12.933 0)">
        <path id="Path_516" data-name="Path 516" class="cls-1" d="M1249.856,435.211h-4.579a.473.473,0,0,1,0-.946h4.106v-.682a.751.751,0,0,0-.4-.586l-2.78-1.2a.473.473,0,0,1-.286-.434v-1.4a.472.472,0,0,1,.174-.367,2.668,2.668,0,0,0,.883-2.073,1.918,1.918,0,1,0-3.693,0,2.846,2.846,0,0,0,.544,1.719.473.473,0,0,1-.753.573,3.8,3.8,0,0,1-.737-2.292,2.844,2.844,0,1,1,5.585,0,3.681,3.681,0,0,1-1.057,2.652v.878l2.506,1.082.011,0a1.686,1.686,0,0,1,.944,1.407c0,.008,0,.016,0,.024v1.169A.473.473,0,0,1,1249.856,435.211Z" transform="translate(-1242.34 -424.139)"/>
      </g>
    </g>
  </g>
</svg>
